# xmcd
#
# Track frame offsets: 
#        150
#        18102
#        35361
#        51676
#        71301
#        83796
#        101539
#        121184
#        140456
#        159740
#        179004
#        197708
#        212162
#        226055
#        241985
#        259105
#        277271
#        297043
#        315831
#        329150
#
# Disc length: 4623 seconds
#
# Revision: 0
# Processed by: cddbd v1.5.2PL0 Copyright (c) Steve Scherf et al.
# Submitted via: ExactAudioCopyFreeDBPlugin 1.0
#
DISCID=24120d14
DTITLE=Various Artist - The very best of Black Flavour Club 2
DYEAR=2016
DGENRE=No, thanks.
TTITLE0=Outkast - Ms. Jackson (Radio Mix)
TTITLE1=Eve - Let Me Blow Ya Mind
TTITLE2=TLC - No Scrubs
TTITLE3=New Edition - Hit Me Off
TTITLE4=702 - Where My Girls At
TTITLE5=Mya - Case Of The Ex
TTITLE6=Bell Biv DeVoe - Poison
TTITLE7=Joe Budden - Pump It Up
TTITLE8=Heavy D. and The Boyz feat. Aaron Hall - Now That We Found Love
TTITLE9=M.C. Hammer - U Can't Touch This
TTITLE10=Ini Kamoze - Here Comes The Hotstepper
TTITLE11=Kevin Lyttle - Turn Me On ([blank])
TTITLE12=Lumidee - Never Leave You (Uh Oooh, Uh Oooh)
TTITLE13=Sean Paul - Get Busy
TTITLE14=Soul II Soul - Back To Life (However Do You Want Me)
TTITLE15=Tony! Toni! Toné! - If I Had No Loot
TTITLE16=Bobby Brown - Humpin' Around
TTITLE17=Rakim - Guess Who's Back
TTITLE18=Foxy Brown - I'll Be
TTITLE19=Jay-Z - 99 Problems
EXTD=
EXTT0=
EXTT1=
EXTT2=
EXTT3=
EXTT4=
EXTT5=
EXTT6=
EXTT7=
EXTT8=
EXTT9=
EXTT10=
EXTT11=
EXTT12=
EXTT13=
EXTT14=
EXTT15=
EXTT16=
EXTT17=
EXTT18=
EXTT19=
PLAYORDER=
